<svg aria-roledescription="pie" role="graphics-document document" style="max-width: 743.071px; background-color: transparent;" viewBox="0 0 743.07080078125 450" xmlns:xlink="http://www.w3.org/1999/xlink" xmlns="http://www.w3.org/2000/svg" width="100%" id="my-svg"><style>#my-svg{font-family:"trebuchet ms",verdana,arial,sans-serif;font-size:16px;fill:#333;}#my-svg .error-icon{fill:#552222;}#my-svg .error-text{fill:#552222;stroke:#552222;}#my-svg .edge-thickness-normal{stroke-width:1px;}#my-svg .edge-thickness-thick{stroke-width:3.5px;}#my-svg .edge-pattern-solid{stroke-dasharray:0;}#my-svg .edge-thickness-invisible{stroke-width:0;fill:none;}#my-svg .edge-pattern-dashed{stroke-dasharray:3;}#my-svg .edge-pattern-dotted{stroke-dasharray:2;}#my-svg .marker{fill:#333333;stroke:#333333;}#my-svg .marker.cross{stroke:#333333;}#my-svg svg{font-family:"trebuchet ms",verdana,arial,sans-serif;font-size:16px;}#my-svg p{margin:0;}#my-svg .pieCircle{stroke:black;stroke-width:2px;opacity:0.7;}#my-svg .pieOuterCircle{stroke:black;stroke-width:2px;fill:none;}#my-svg .pieTitleText{text-anchor:middle;font-size:25px;fill:black;font-family:"trebuchet ms",verdana,arial,sans-serif;}#my-svg .slice{font-family:"trebuchet ms",verdana,arial,sans-serif;fill:#333;font-size:17px;}#my-svg .legend text{fill:black;font-family:"trebuchet ms",verdana,arial,sans-serif;font-size:17px;}#my-svg :root{--mermaid-font-family:"trebuchet ms",verdana,arial,sans-serif;}</style><g/><g transform="translate(225,225)"><circle class="pieOuterCircle" r="186" cy="0" cx="0"/><path class="pieCircle" fill="#ECECFF" d="M0,-185A185,185,0,0,1,177.938,50.628L0,0Z"/><path class="pieCircle" fill="#ffffde" d="M177.938,50.628A185,185,0,0,1,11.389,184.649L0,0Z"/><path class="pieCircle" fill="hsl(80, 100%, 56.2745098039%)" d="M11.389,184.649A185,185,0,0,1,-170.368,72.11L0,0Z"/><path class="pieCircle" fill="hsl(240, 100%, 86.2745098039%)" d="M-170.368,72.11A185,185,0,0,1,-124.634,-136.717L0,0Z"/><path class="pieCircle" fill="hsl(60, 100%, 63.5294117647%)" d="M-124.634,-136.717A185,185,0,0,1,0,-185L0,0Z"/><text style="text-anchor: middle;" class="slice" transform="translate(110.72489028513323,-83.61555579762182)">29%</text><text style="text-anchor: middle;" class="slice" transform="translate(86.98567806780726,108.09742971543677)">20%</text><text style="text-anchor: middle;" class="slice" transform="translate(-73.04246259923313,117.96762758248396)">20%</text><text style="text-anchor: middle;" class="slice" transform="translate(-135.5377040891446,-29.68321529490154)">20%</text><text style="text-anchor: middle;" class="slice" transform="translate(-50.12228118346748,-129.38052182985436)">12%</text><text class="pieTitleText" y="-200" x="0"/><g transform="translate(216,-55)" class="legend"><rect style="fill: rgb(236, 236, 255); stroke: rgb(236, 236, 255);" height="18" width="18"/><text y="14" x="22">Kyverno</text></g><g transform="translate(216,-33)" class="legend"><rect style="fill: rgb(255, 255, 222); stroke: rgb(255, 255, 222);" height="18" width="18"/><text y="14" x="22">AWS</text></g><g transform="translate(216,-11)" class="legend"><rect style="fill: rgb(181, 255, 32); stroke: rgb(181, 255, 32);" height="18" width="18"/><text y="14" x="22">Elastic</text></g><g transform="translate(216,11)" class="legend"><rect style="fill: rgb(185, 185, 255); stroke: rgb(185, 185, 255);" height="18" width="18"/><text y="14" x="22">Kubernetes Prometheus Stack</text></g><g transform="translate(216,33)" class="legend"><rect style="fill: rgb(255, 255, 69); stroke: rgb(255, 255, 69);" height="18" width="18"/><text y="14" x="22">Certificate Manager</text></g></g></svg>