<svg aria-roledescription="xychart" role="graphics-document document" viewBox="0 0 1200 600" style="max-width: 1200px; background-color: transparent;" xmlns:xlink="http://www.w3.org/1999/xlink" xmlns="http://www.w3.org/2000/svg" width="100%" id="my-svg"><style>#my-svg{font-family:"trebuchet ms",verdana,arial,sans-serif;font-size:16px;fill:#333;}#my-svg .error-icon{fill:hsl(220.5882352941, 100%, 98.3333333333%);}#my-svg .error-text{fill:rgb(8.5000000002, 5.7500000001, 0);stroke:rgb(8.5000000002, 5.7500000001, 0);}#my-svg .edge-thickness-normal{stroke-width:1px;}#my-svg .edge-thickness-thick{stroke-width:3.5px;}#my-svg .edge-pattern-solid{stroke-dasharray:0;}#my-svg .edge-thickness-invisible{stroke-width:0;fill:none;}#my-svg .edge-pattern-dashed{stroke-dasharray:3;}#my-svg .edge-pattern-dotted{stroke-dasharray:2;}#my-svg .marker{fill:#0b0b0b;stroke:#0b0b0b;}#my-svg .marker.cross{stroke:#0b0b0b;}#my-svg svg{font-family:"trebuchet ms",verdana,arial,sans-serif;font-size:16px;}#my-svg p{margin:0;}#my-svg :root{--mermaid-font-family:"trebuchet ms",verdana,arial,sans-serif;}</style><g/><g class="main"><rect fill="transparent" class="background" height="600" width="1200"/><g class="plot"><g class="bar-plot-0"><rect stroke-width="0" stroke="#FFF4DD" fill="#FFF4DD" height="29.862079999999878" width="47.5" y="543.1379200000001" x="69.70313262939453"/><rect stroke-width="0" stroke="#FFF4DD" fill="#FFF4DD" height="13.670200000000023" width="47.5" y="559.3298" x="146.95648029872348"/><rect stroke-width="0" stroke="#FFF4DD" fill="#FFF4DD" height="27.519999999999982" width="47.5" y="545.48" x="224.20982796805245"/><rect stroke-width="0" stroke="#FFF4DD" fill="#FFF4DD" height="15.590834285714209" width="47.5" y="557.4091657142858" x="301.4631756373814"/><rect stroke-width="0" stroke="#FFF4DD" fill="#FFF4DD" height="36.878668571428534" width="47.5" y="536.1213314285715" x="378.71652330671037"/><rect stroke-width="0" stroke="#FFF4DD" fill="#FFF4DD" height="118.4268057142857" width="47.5" y="454.5731942857143" x="455.9698709760393"/><rect stroke-width="0" stroke="#FFF4DD" fill="#FFF4DD" height="118.15978285714283" width="47.5" y="454.84021714285717" x="533.2232186453683"/><rect stroke-width="0" stroke="#FFF4DD" fill="#FFF4DD" height="278.1161257142858" width="47.5" y="294.8838742857142" x="610.4765663146973"/><rect stroke-width="0" stroke="#FFF4DD" fill="#FFF4DD" height="544.1094971428571" width="47.5" y="28.890502857142884" x="687.7299139840262"/><rect stroke-width="0" stroke="#FFF4DD" fill="#FFF4DD" height="154.3815942857143" width="47.5" y="418.6184057142857" x="764.9832616533552"/><rect stroke-width="0" stroke="#FFF4DD" fill="#FFF4DD" height="87.2784285714286" width="47.5" y="485.7215714285714" x="842.2366093226841"/><rect stroke-width="0" stroke="#FFF4DD" fill="#FFF4DD" height="84.26396571428575" width="47.5" y="488.73603428571425" x="919.489956992013"/><rect stroke-width="0" stroke="#FFF4DD" fill="#FFF4DD" height="188.85649714285722" width="47.5" y="384.1435028571428" x="996.7433046613421"/><rect stroke-width="0" stroke="#FFF4DD" fill="#FFF4DD" height="145.0004057142857" width="47.5" y="427.9995942857143" x="1073.9966523306712"/><rect stroke-width="0" stroke="#FFF4DD" fill="#FFF4DD" height="129.55490285714285" width="47.5" y="443.44509714285715" x="1151.25"/></g><g class="line-plot-1"><path stroke-width="2" stroke="#FFD8B1" fill="none" d="M93.453,543.138L170.706,559.33L247.96,545.48L325.213,557.409L402.467,536.121L479.72,454.573L556.973,454.84L634.227,294.884L711.48,28.891L788.733,418.618L865.987,485.722L943.24,488.736L1020.493,384.144L1097.747,428L1175,443.445"/></g></g><g class="bottom-axis"><g class="axis-line"><path stroke-width="2" stroke="#131300" fill="none" d="M 68.45313262939453,574 L 1200,574"/></g><g class="label"><text transform="translate(93.45313262939453, 585) rotate(0)" text-anchor="middle" dominant-baseline="text-before-edge" font-size="14" fill="#131300" y="0" x="0">Q1-21</text><text transform="translate(170.70648029872348, 585) rotate(0)" text-anchor="middle" dominant-baseline="text-before-edge" font-size="14" fill="#131300" y="0" x="0">Q2-21</text><text transform="translate(247.95982796805245, 585) rotate(0)" text-anchor="middle" dominant-baseline="text-before-edge" font-size="14" fill="#131300" y="0" x="0">Q3-21</text><text transform="translate(325.2131756373814, 585) rotate(0)" text-anchor="middle" dominant-baseline="text-before-edge" font-size="14" fill="#131300" y="0" x="0">Q4-21</text><text transform="translate(402.46652330671037, 585) rotate(0)" text-anchor="middle" dominant-baseline="text-before-edge" font-size="14" fill="#131300" y="0" x="0">Q1-22</text><text transform="translate(479.7198709760393, 585) rotate(0)" text-anchor="middle" dominant-baseline="text-before-edge" font-size="14" fill="#131300" y="0" x="0">Q2-22</text><text transform="translate(556.9732186453683, 585) rotate(0)" text-anchor="middle" dominant-baseline="text-before-edge" font-size="14" fill="#131300" y="0" x="0">Q3-22</text><text transform="translate(634.2265663146973, 585) rotate(0)" text-anchor="middle" dominant-baseline="text-before-edge" font-size="14" fill="#131300" y="0" x="0">Q4-22</text><text transform="translate(711.4799139840262, 585) rotate(0)" text-anchor="middle" dominant-baseline="text-before-edge" font-size="14" fill="#131300" y="0" x="0">Q1-23</text><text transform="translate(788.7332616533552, 585) rotate(0)" text-anchor="middle" dominant-baseline="text-before-edge" font-size="14" fill="#131300" y="0" x="0">Q2-23</text><text transform="translate(865.9866093226841, 585) rotate(0)" text-anchor="middle" dominant-baseline="text-before-edge" font-size="14" fill="#131300" y="0" x="0">Q3-23</text><text transform="translate(943.239956992013, 585) rotate(0)" text-anchor="middle" dominant-baseline="text-before-edge" font-size="14" fill="#131300" y="0" x="0">Q4-23</text><text transform="translate(1020.4933046613421, 585) rotate(0)" text-anchor="middle" dominant-baseline="text-before-edge" font-size="14" fill="#131300" y="0" x="0">Q1-24</text><text transform="translate(1097.7466523306712, 585) rotate(0)" text-anchor="middle" dominant-baseline="text-before-edge" font-size="14" fill="#131300" y="0" x="0">Q2-24</text><text transform="translate(1175, 585) rotate(0)" text-anchor="middle" dominant-baseline="text-before-edge" font-size="14" fill="#131300" y="0" x="0">Q3-24</text></g><g class="ticks"><path stroke-width="2" stroke="#131300" fill="none" d="M 93.45313262939453,575 L 93.45313262939453,580"/><path stroke-width="2" stroke="#131300" fill="none" d="M 170.70648029872348,575 L 170.70648029872348,580"/><path stroke-width="2" stroke="#131300" fill="none" d="M 247.95982796805245,575 L 247.95982796805245,580"/><path stroke-width="2" stroke="#131300" fill="none" d="M 325.2131756373814,575 L 325.2131756373814,580"/><path stroke-width="2" stroke="#131300" fill="none" d="M 402.46652330671037,575 L 402.46652330671037,580"/><path stroke-width="2" stroke="#131300" fill="none" d="M 479.7198709760393,575 L 479.7198709760393,580"/><path stroke-width="2" stroke="#131300" fill="none" d="M 556.9732186453683,575 L 556.9732186453683,580"/><path stroke-width="2" stroke="#131300" fill="none" d="M 634.2265663146973,575 L 634.2265663146973,580"/><path stroke-width="2" stroke="#131300" fill="none" d="M 711.4799139840262,575 L 711.4799139840262,580"/><path stroke-width="2" stroke="#131300" fill="none" d="M 788.7332616533552,575 L 788.7332616533552,580"/><path stroke-width="2" stroke="#131300" fill="none" d="M 865.9866093226841,575 L 865.9866093226841,580"/><path stroke-width="2" stroke="#131300" fill="none" d="M 943.239956992013,575 L 943.239956992013,580"/><path stroke-width="2" stroke="#131300" fill="none" d="M 1020.4933046613421,575 L 1020.4933046613421,580"/><path stroke-width="2" stroke="#131300" fill="none" d="M 1097.7466523306712,575 L 1097.7466523306712,580"/><path stroke-width="2" stroke="#131300" fill="none" d="M 1175,575 L 1175,580"/></g></g><g class="left-axis"><g class="axisl-line"><path stroke-width="2" stroke="#131300" fill="none" d="M 67.45313262939453,0 L 67.45313262939453,573"/></g><g class="label"><text transform="translate(56.45313262939453, 53.257142857142874) rotate(0)" text-anchor="end" dominant-baseline="middle" font-size="14" fill="#131300" y="0" x="0">160000</text><text transform="translate(56.45313262939453, 117.59999999999998) rotate(0)" text-anchor="end" dominant-baseline="middle" font-size="14" fill="#131300" y="0" x="0">140000</text><text transform="translate(56.45313262939453, 181.94285714285712) rotate(0)" text-anchor="end" dominant-baseline="middle" font-size="14" fill="#131300" y="0" x="0">120000</text><text transform="translate(56.45313262939453, 246.2857142857143) rotate(0)" text-anchor="end" dominant-baseline="middle" font-size="14" fill="#131300" y="0" x="0">100000</text><text transform="translate(56.45313262939453, 310.62857142857143) rotate(0)" text-anchor="end" dominant-baseline="middle" font-size="14" fill="#131300" y="0" x="0">80000</text><text transform="translate(56.45313262939453, 374.9714285714286) rotate(0)" text-anchor="end" dominant-baseline="middle" font-size="14" fill="#131300" y="0" x="0">60000</text><text transform="translate(56.45313262939453, 439.31428571428575) rotate(0)" text-anchor="end" dominant-baseline="middle" font-size="14" fill="#131300" y="0" x="0">40000</text><text transform="translate(56.45313262939453, 503.65714285714284) rotate(0)" text-anchor="end" dominant-baseline="middle" font-size="14" fill="#131300" y="0" x="0">20000</text><text transform="translate(56.45313262939453, 568) rotate(0)" text-anchor="end" dominant-baseline="middle" font-size="14" fill="#131300" y="0" x="0">0</text></g><g class="ticks"><path stroke-width="2" stroke="#131300" fill="none" d="M 66.45313262939453,53.257142857142874 L 61.45313262939453,53.257142857142874"/><path stroke-width="2" stroke="#131300" fill="none" d="M 66.45313262939453,117.59999999999998 L 61.45313262939453,117.59999999999998"/><path stroke-width="2" stroke="#131300" fill="none" d="M 66.45313262939453,181.94285714285712 L 61.45313262939453,181.94285714285712"/><path stroke-width="2" stroke="#131300" fill="none" d="M 66.45313262939453,246.2857142857143 L 61.45313262939453,246.2857142857143"/><path stroke-width="2" stroke="#131300" fill="none" d="M 66.45313262939453,310.62857142857143 L 61.45313262939453,310.62857142857143"/><path stroke-width="2" stroke="#131300" fill="none" d="M 66.45313262939453,374.9714285714286 L 61.45313262939453,374.9714285714286"/><path stroke-width="2" stroke="#131300" fill="none" d="M 66.45313262939453,439.31428571428575 L 61.45313262939453,439.31428571428575"/><path stroke-width="2" stroke="#131300" fill="none" d="M 66.45313262939453,503.65714285714284 L 61.45313262939453,503.65714285714284"/><path stroke-width="2" stroke="#131300" fill="none" d="M 66.45313262939453,568 L 61.45313262939453,568"/></g><g class="title"><text transform="translate(5, 286.5) rotate(270)" text-anchor="middle" dominant-baseline="text-before-edge" font-size="16" fill="#131300" y="0" x="0">Colleagues laid off</text></g></g></g><g class="mermaid-tmp-group"/></svg>